<?xml version="1.0" encoding="UTF-8"?>
<svg xmlns="http://www.w3.org/2000/svg" viewBox="0 0 6042.83 1952.47">
  <g>
    <circle cx="890.237" cy="1001.287" r="578.867" fill="#fff"/>
    <circle cx="890.237" cy="1001.287" r="578.867" fill="#f6cb47"/>
  </g>
  <g fill="#0a0a0a">
    <path d="M1105.7289344,959.4461726c-5.7566293-16.3262562-8.4702132-33.1803295-11.7316201-50.5223587-11.5931556-61.6448224-49.4304195-107.5383211-109.1626646-127.2741763-60.6906325-20.0525115-122.4969043-8.7933395-183.3379691,7.3533294-2.7148201,46.644615-6.3409503,91.1583313-14.314975,136.7515497-9.2909632,53.1231006-20.9890022,104.5905302-36.9416276,155.5341477-5.7287978,18.2945238-20.4705655,30.7824812-35.747408,35.6674131-18.9610964,6.063011-38.5529504,2.4183428-53.1302993-10.5440633-22.0709715-19.6258522-41.8084073-40.70428-63.3631212-62.5364762-25.7295692,138.3819586-46.5797071,275.1408115-61.8329345,416.5572444l-42.0355119-34.537922c16.2064218-142.0311747,37.8016513-282.005609,65.0908737-421.4002108-33.9318061-35.1647249-66.2103937-70.4323258-97.8444334-106.9648833-12.9805565-14.9905902-16.7973632-33.7381006-11.2320443-53.6463771,4.5163777-16.1560009,18.1874337-29.8970282,35.914159-36.8644504l84.1259399-33.0653816,108.1167339-41.319063,89.5767757-33.755926c7.7679771-2.9272683,14.9250257-4.4265781,22.4853341.5966972,5.1411694,3.4159334,10.1529157,10.0638656,10.4951272,17.9937997l1.111535,25.7571721c29.2693341-7.1199612,57.7513775-13.4110982,88.2712165-15.295557l41.4803494-52.2598895c17.8496501-22.4882567,50.0331743-21.9811604,77.5700238-14.124642,38.6607279,11.0302641,77.2853259,20.3332182,114.5574743,34.4866716,33.2408679,12.6226444,48.0433576,46.8587242,39.0619163,79.8169653l-28.4299469,104.3263564,6.0853817,28.7704223,157.1012535-20.8322279c16.512303-2.1895946,33.0838503,2.3537535,44.5289897,13.3824446,10.8586532,10.4635451,13.5956001,25.0201599,12.5672879,40.3177395-6.6028696,98.2269051-17.5648093,194.7121092-29.8855581,292.481758-1.2758898,24.0730104-15.3438029,44.8047691-38.6615336,52.5857705-59.8084175,19.9577476-120.3272888,34.6256602-183.1319824,47.7998577l11.1411105,200.9938322-45.025048,17.0265194-13.7112972-255.770346c73.070773-13.2069776,143.8019651-30.4059484,214.1726591-52.5986182,4.7132375-1.4864046,7.3579767-6.1177636,8.9577424-10.624157l22.1910085-189.2393909c-16.053639,1.7101826-31.0132995,2.1121245-46.437883-1.2488304-44.874482-9.7779695-63.591009-51.4567039-51.3456349-96.4975846l-97.2993994,12.7228412ZM1106.7312632,821.9433088l15.1038312-59.3246843c3.211702-12.6148924-4.2821271-23.5323405-16.3991203-27.9864268-39.4335855-12.7820716-78.646839-24.4690798-118.7569644-34.6925265-11.2182601-2.8593599-20.8108476.6609594-27.1372161,9.0219978l-14.8092351,19.5721424c67.7505899,8.1785316,124.0212765,36.3348597,161.9987046,93.4094974ZM589.5207049,973.303458l98.2451847,99.2553597c3.5081347,3.544206,10.8618959,4.0508064,14.2790756,2.5094412,3.7933708-1.7110513,6.9917561-5.4787577,8.5271951-10.5468696,27.2465494-89.9342568,43.7132268-182.4625904,48.2522652-276.509103l.1859307-39.9470438-169.0811636,64.2052064-88.5023054,34.7997313c-4.9094276,1.9304216-9.6499506,5.776921-10.3691204,9.8574192-.8718534,4.9468101.5657099,10.5254737,3.913327,14.1931223l65.7022207,71.9833408,28.8473904,30.1993956ZM1267.2258503,999.3085831c12.7719376,1.5798087,25.3289265.4796865,37.5011608-1.1828915l4.5648395-59.3252831-2.1585338-4.5491005c-.3997524-.8424765-3.8626899-.6600062-4.7899759-.5355983l-51.2426864,6.8748975c-3.1193362,10.5434828-5.788262,22.601252-5.9008262,34.189093-.1279648,13.1732366,8.4231074,22.8462875,22.0260221,24.5288829Z"/>
    <path d="M1013.4630232,1027.4113435c-4.4964324,7.3073479-11.2299027,10.4657395-18.0535241,10.2610915-6.5727325-.1971236-13.5852211-3.3631722-17.4682039-9.8616013-7.9158201-13.2476495-8.8113701-30.1960703-2.2006765-44.087354,3.3843235-7.1115984,10.346334-11.4407397,16.8010146-11.9390379,7.7801146-.6006211,14.580077,2.5726351,19.2728133,9.5174105,8.9008296,13.1723283,10.3043216,32.0426638,1.6485767,46.1094912Z"/>
    <path d="M865.5932312,993.8581383c15.4971832,22.9845313,7.4985633,54.2733585-11.450507,57.4003089-7.6092866,1.2556743-14.6497318-1.3678587-19.6047578-7.9351391-10.6100707-14.0623498-11.4547021-35.0977826-1.2634218-49.6004998,3.8169904-5.4317741,10.1285631-8.4774669,15.5967168-8.6619339,6.4239019-.2167089,12.7952618,2.9733962,16.7219698,8.7972639Z"/>
    <path fill="#f6cb47" d="M589.5207049,973.303458l-28.8473904-30.1993956-65.7022207-71.9833408c-3.3476171-3.6676486-4.7851804-9.2463122-3.913327-14.1931223.7191697-4.0804981,5.4596928-7.9269976,10.3691204-9.8574192l88.5023054-34.7997313,169.0811636-64.2052064-.1859307,39.9470438c-4.5390384,94.0465126-21.0057158,186.5748462-48.2522652,276.509103-1.535439,5.0681119-4.7338242,8.8358184-8.5271951,10.5468696-3.4171797,1.5413652-10.7709409,1.0347648-14.2790756-2.5094412l-98.2451847-99.2553597Z"/>
    <path fill="#f6cb47" d="M1106.7312632,821.9433088c-37.9774282-57.0746377-94.2481147-85.2309658-161.9987046-93.4094974l14.8092351-19.5721424c6.3263684-8.3610385,15.918956-11.8813577,27.1372161-9.0219978,40.1101254,10.2234467,79.3233789,21.9104549,118.7569644,34.6925265,12.1169933,4.4540863,19.6108223,15.3715345,16.3991203,27.9864268l-15.1038312,59.3246843Z"/>
    <path fill="#fff" d="M1267.2258503,999.3085831c-13.6029147-1.6825953-22.1539868-11.3556463-22.0260221-24.5288829.1125642-11.587841,2.78149-23.6456102,5.9008262-34.189093l51.2426864-6.8748975c.927286-.1244079,4.3902235-.3068781,4.7899759.5355983l2.1585338,4.5491005-4.5648395,59.3252831c-12.1722343,1.662578-24.7292232,2.7627001-37.5011608,1.1828915Z"/>
  </g>
  <g fill="currentColor">
    <path d="M1838.21875,1409.2128437v-604.9599609h107.7802734v52.1518555h15.6455078c9.8457031-16.7998047,25.2060547-31.7255859,46.0673828-44.7636719,20.8603516-13.0380859,50.6982422-19.5566406,89.5263672-19.5566406,34.7685547,0,66.9287109,8.5561523,96.4804688,25.6411133,29.5527344,17.0986328,53.3066406,42.1557617,71.2744141,75.1850586,17.9541016,33.0297852,26.9453125,73.0126953,26.9453125,119.9492188v13.9072266c0,46.9360352-8.9912109,86.9194336-26.9453125,119.9487305-17.9677734,33.0292969-41.7216797,58.1005859-71.2744141,75.1855469-29.5517578,17.0849609-61.7119141,25.6416016-96.4804688,25.6416016-26.0751953,0-47.9550781-3.0429688-65.6240234-9.1269531-17.6826172-6.0839844-31.875-13.9072266-42.5908203-23.46875-10.7285156-9.5605469-19.2714844-19.2578125-25.640625-29.1176758h-15.6455078v223.3833008h-109.5185547ZM2064.2089844,1151.9306171c34.1835938,0,62.4326172-10.8647461,84.7470703-32.5947266,22.2998047-21.7299805,33.4638672-53.4555664,33.4638672-95.1767578v-8.6918945c0-41.7211914-11.2998047-73.4467773-33.8984375-95.1767578-22.5996094-21.7299805-50.7128906-32.5947266-84.3125-32.5947266-33.6132812,0-61.7128906,10.8647461-84.3115234,32.5947266-22.5996094,21.7299805-33.8984375,53.4555664-33.8984375,95.1767578v8.6918945c0,41.7211914,11.2988281,73.4467773,33.8984375,95.1767578,22.5986328,21.7299805,50.6982422,32.5947266,84.3115234,32.5947266Z"/>
    <path d="M2526.6074219,1247.5429218c-30.7207031,0-58.2353516-5.3652344-82.5732422-16.0800781-24.3369141-10.7158203-43.609375-26.3613281-57.8017578-46.9370117-14.2050781-20.5620117-21.2949219-45.6328125-21.2949219-75.1855469s7.0898438-54.324707,21.2949219-74.315918c14.1923828-19.9916992,33.8994141-35.0532227,59.1054688-45.1982422,25.2070312-10.1318359,54.0263672-15.2109375,86.4853516-15.2109375h118.2099609v-24.3374023c0-20.2768555-6.3828125-36.940918-19.1220703-49.9790039-12.7529297-13.0375977-33.0292969-19.5566406-60.84375-19.5566406-27.2441406,0-47.5205078,6.2338867-60.84375,18.6875-13.3369141,12.4677734-22.0283203,28.5478516-26.0751953,48.2402344l-100.8271484-33.8984375c6.9541016-22.0151367,18.1035156-42.1557617,33.4638672-60.4091797,15.3466797-18.2529297,35.9228516-33.0292969,61.7128906-44.3286133,25.7773438-11.2998047,57.2177734-16.9492188,94.3076172-16.9492188,56.7832031,0,101.6962891,14.2055664,134.7255859,42.590332,33.0292969,28.3984375,49.5439453,69.5356445,49.5439453,123.4257812v160.8007812c0,17.3837891,8.1083984,26.0761719,24.3369141,26.0761719h34.7685547v90.3964844h-73.0126953c-21.4443359,0-39.1132812-5.2158203-53.0205078-15.6455078-13.9072266-10.4306641-20.8613281-24.3378906-20.8613281-41.7216797v-.8691406h-16.5146484c-2.3222656,6.953125-7.5371094,16.0800781-15.6455078,27.3798828-8.1210938,11.2998047-20.8603516,21.2949219-38.2441406,29.9873047-17.3837891,8.6914062-41.1513672,13.0380859-71.2744141,13.0380859ZM2545.7304688,1158.8842304c30.7070312,0,55.7636719-8.5424805,75.1845703-25.6411133,19.4082031-17.0849609,29.1181641-39.8334961,29.1181641-68.2319336v-8.6918945h-110.3876953c-20.2900391,0-36.2207031,4.3461914-47.8056641,13.0380859-11.5986328,8.6918945-17.3837891,20.8608398-17.3837891,36.5063477s6.0839844,28.3979492,18.2529297,38.2441406c12.1689453,9.8603516,29.8378906,14.7763672,53.0214844,14.7763672Z"/>
    <path d="M2865.5878906,1021.5517109v-13.9072266c0-45.1982422,8.9765625-83.8774414,26.9443359-116.0375977,17.9541016-32.1601562,41.8574219-56.7827148,71.7089844-73.8813477,29.8378906-17.0849609,62.4326172-25.6411133,97.7841797-25.6411133,39.3994141,0,69.2373047,6.9536133,89.5273438,20.8603516,20.2763672,13.9072266,35.0527344,28.3984375,44.3291016,43.4599609h15.6455078v-52.1518555h107.7792969v507.6103516c0,29.5527344-8.6914062,53.15625-26.0751953,70.8388672-17.3837891,17.6699219-40.5673828,26.5107422-69.5361328,26.5107422h-288.5722656v-95.6113281h250.328125c16.2158203,0,24.3369141-8.6923828,24.3369141-26.0761719v-112.1264648h-15.6455078c-5.7988281,9.2758789-13.90625,18.6879883-24.3369141,28.2495117-10.4306641,9.5605469-24.3378906,17.5332031-41.7216797,23.9023438-17.3837891,6.3837891-39.4121094,9.5615234-66.0585938,9.5615234-35.3515625,0-67.9462891-8.5429688-97.7841797-25.6416016-29.8515625-17.0849609-53.7548828-41.7211914-71.7089844-73.8813477-17.9677734-32.1606445-26.9443359-70.8393555-26.9443359-116.0375977ZM3093.3164062,1141.5004414c33.5996094,0,61.7128906-10.715332,84.3115234-32.1601562,22.5996094-21.4311523,33.8994141-51.5678711,33.8994141-90.3964844v-8.6918945c0-39.3989258-11.1640625-69.6713867-33.4648438-90.8305664-22.3134766-21.1459961-50.5625-31.7255859-84.7460938-31.7255859-33.6132812,0-61.7128906,10.5795898-84.3115234,31.7255859-22.5996094,21.1591797-33.8984375,51.4316406-33.8984375,90.8305664v8.6918945c0,38.8286133,11.2988281,68.965332,33.8984375,90.3964844,22.5986328,21.4448242,50.6982422,32.1601562,84.3115234,32.1601562Z"/>
    <path d="M3637.4199219,1247.5429218c-42.8886719,0-80.6992188-9.1269531-113.4296875-27.3798828-32.7441406-18.2529297-58.2363281-44.0307617-76.4892578-77.3588867-18.2529297-33.3144531-27.3789062-72.5776367-27.3789062-117.7758789v-10.4301758c0-45.1982422,8.9765625-84.4477539,26.9443359-117.7758789,17.9541016-33.3144531,43.1611328-59.1054688,75.6201172-77.3583984,32.4453125-18.2529297,70.1064453-27.3793945,112.9951172-27.3793945,42.2919922,0,79.0966797,9.425293,110.3876953,28.2485352,31.2910156,18.8374023,55.6289062,44.9130859,73.0126953,78.2275391,17.3837891,33.328125,26.0761719,72.0073242,26.0761719,116.0375977v37.3754883h-313.7792969c1.1542969,29.5522461,12.1679688,53.6044922,33.0292969,72.1430664,20.8603516,18.5517578,46.3525391,27.8139648,76.4892578,27.8139648,30.7070312,0,53.3056641-6.6547852,67.796875-19.9912109,14.4775391-13.3232422,25.4921875-28.0996094,33.0292969-44.3291016l89.5273438,46.9365234c-8.1220703,15.0751953-19.8564453,31.4404297-35.203125,49.109375-15.3603516,17.6835938-35.7861328,32.7451172-61.2773438,45.1982422-25.5058594,12.4541016-57.9511719,18.6884766-97.3505859,18.6884766ZM3532.2480469,970.268996h201.6523438c-2.3222656-24.9077148-12.3173828-44.8994141-29.9863281-59.9741211-17.6835938-15.0615234-40.7167969-22.5991211-69.1015625-22.5991211-29.5527344,0-53.0205078,7.5375977-70.4042969,22.5991211-17.3837891,15.074707-28.1132812,35.0664062-32.1601562,59.9741211Z"/>
    <path d="M4133.7265625,1247.5429218c-36.5058594,0-70.1191406-8.6923828-100.8261719-26.0761719-30.7207031-17.3837891-55.0585938-42.5908203-73.0126953-75.6201172-17.9677734-33.0297852-26.9453125-72.1435547-26.9453125-117.3413086v-11.2998047c0-45.1982422,8.9775391-84.1621094,26.9453125-116.9067383,17.9541016-32.7304688,42.15625-57.9370117,72.578125-75.6196289,30.421875-17.6689453,64.1708984-26.5107422,101.2607422-26.5107422,29.5527344,0,54.6103516,3.9116211,75.1855469,11.734375,20.5615234,7.8227539,37.2255859,17.6826172,49.9785156,29.5527344,12.7392578,11.8833008,22.5986328,24.4868164,29.5527344,37.8095703h12.1689453v-250.3276367h68.6660156v608.4365234h-66.9277344v-70.4052734h-12.1689453c-11.5986328,21.4448242-29.5527344,40.5673828-53.8896484,57.3671875-24.3378906,16.7998047-58.5351562,25.2070312-102.5654297,25.2070312ZM4151.9794922,1186.6986835c44.0302734,0,79.8164062-14.0429688,107.3457031-42.15625,27.515625-28.0991211,41.2871094-67.3623047,41.2871094-117.7753906v-7.8232422c0-50.4130859-13.7714844-89.6625977-41.2871094-117.7753906-27.5292969-28.0996094-63.3154297-42.15625-107.3457031-42.15625-43.4599609,0-79.2460938,14.0566406-107.3457031,42.15625-28.1123047,28.112793-42.1552734,67.3623047-42.1552734,117.7753906v7.8232422c0,50.4130859,14.0429688,89.6762695,42.1552734,117.7753906,28.0996094,28.1132812,63.8857422,42.15625,107.3457031,42.15625Z"/>
    <path d="M4710,1247.5429218c-42.8896484,0-80.6992188-8.9912109-113.4296875-26.9453125-32.7441406-17.9541016-58.2363281-43.3105469-76.4892578-76.0551758-18.2529297-32.7304688-27.3798828-71.409668-27.3798828-116.0371094v-11.2998047c0-44.0297852,9.1269531-82.5732422,27.3798828-115.6025391,18.2529297-33.0297852,43.7451172-58.5214844,76.4892578-76.4892578,32.7304688-17.9545898,70.5400391-26.9453125,113.4296875-26.9453125,42.8759766,0,80.6855469,8.9907227,113.4296875,26.9453125,32.7304688,17.9677734,58.2363281,43.4594727,76.4892578,76.4892578,18.2529297,33.0292969,27.3798828,71.5727539,27.3798828,115.6025391v11.2998047c0,44.6274414-9.1269531,83.3066406-27.3798828,116.0371094-18.2529297,32.7446289-43.7587891,58.1010742-76.4892578,76.0551758-32.7441406,17.9541016-70.5537109,26.9453125-113.4296875,26.9453125ZM4710,1185.8295429c45.1982422,0,81.2695312-14.3417969,108.2148438-43.0253906,26.9453125-28.6831055,40.4169922-67.3623047,40.4169922-116.0371094v-7.8232422c0-48.6748047-13.4716797-87.3540039-40.4169922-116.0371094-26.9453125-28.6835938-63.0166016-43.0253906-108.2148438-43.0253906-44.6279297,0-80.5498047,14.3417969-107.7802734,43.0253906-27.2431641,28.6831055-40.8515625,67.3623047-40.8515625,116.0371094v7.8232422c0,48.6748047,13.6083984,87.3540039,40.8515625,116.0371094,27.2304688,28.6835938,63.1523438,43.0253906,107.7802734,43.0253906Z"/>
    <path d="M5029.859375,1025.0282734v-12.168457c0-44.6142578,8.9775391-82.8588867,26.9453125-114.7338867,17.9541016-31.8613281,42.2919922-56.4975586,73.0126953-73.8813477,30.7070312-17.3837891,64.3203125-26.0761719,100.8261719-26.0761719,44.6142578,0,78.9472656,8.5561523,103,25.6416016,24.0380859,17.0986328,41.8564453,36.0712891,53.4550781,56.9321289h12.1689453v-70.4047852h65.1894531v524.1245117c0,23.1699219-6.3828125,41.4228516-19.1220703,54.7597656-12.7529297,13.3232422-31.2910156,19.9912109-55.6289062,19.9912109h-288.5722656v-60.84375h270.3193359c17.3837891,0,26.0761719-8.6914062,26.0761719-26.0751953v-161.6713867h-12.1689453c-6.9541016,12.7529297-16.8134766,25.2070312-29.5527344,37.3754883-12.7529297,12.1689453-29.2675781,22.1650391-49.5439453,29.9873047-20.2900391,7.8232422-45.4970703,11.734375-75.6201172,11.734375-36.5058594,0-70.1191406-8.6923828-100.8261719-26.0761719-30.7207031-17.3837891-55.0585938-42.1557617-73.0126953-74.315918-17.9677734-32.1601562-26.9453125-70.2553711-26.9453125-114.2993164ZM5248.8964844,1178.8759296c44.0302734,0,79.8164062-13.9072266,107.3457031-41.7211914,27.515625-27.8144531,41.2871094-66.059082,41.2871094-114.7338867v-6.9536133c0-49.2451172-13.7714844-87.6391602-41.2871094-115.168457-27.5292969-27.5151367-63.3154297-41.2866211-107.3457031-41.2866211-43.4599609,0-79.2460938,13.7714844-107.3457031,41.2866211-28.1123047,27.5292969-42.1552734,65.9233398-42.1552734,115.168457v6.9536133c0,48.6748047,14.0429688,86.9194336,42.1552734,114.7338867,28.0996094,27.8139648,63.8857422,41.7211914,107.3457031,41.7211914Z"/>
  </g>
</svg>
